<svg xmlns="http://www.w3.org/2000/svg" width="148" height="33" class="logo--3xpBT"><g fill="none" fill-rule="evenodd"><path fill="#2A2D77" fill-rule="nonzero" d="M32.515 1.1h6.69c5.383 0 7.961 2.692 7.961 6.344 0 2.2-1.064 3.826-3.088 4.791 2.78.93 4.42 2.895 4.42 5.687 0 3.998-3.223 7.072-8.37 7.072h-7.613V1.1zm6.794 9.754c2.47 0 3.774-1.1 3.774-3.143 0-1.897-1.235-3.102-3.946-3.102h-2.736v6.239l2.908.006zm.671 10.615c3.197 0 4.742-1.482 4.742-3.654 0-1.964-1.114-3.688-4.778-3.688h-3.543v7.342h3.58zM53.313 0c1.201 0 2.367.93 2.367 2.24 0 1.311-1.098 2.317-2.367 2.317a2.23 2.23 0 01-1.645-.656 2.25 2.25 0 01-.655-1.652C51.013.93 52.077 0 53.313 0zm-1.921 7.134h3.842v17.852h-3.842V7.134z"/><path fill="#2A2D77" d="M58.839 7.582l3.293-.448.275 2.412c1.166-1.654 2.519-2.412 4.48-2.412 2.263 0 3.688 1.1 4.58 2.999 1.202-2.068 3.088-2.999 5.285-2.999 3.465 0 6.242 2.515 6.242 6.618v11.234H79.15V14.269c0-2.172-1.045-3.723-2.932-3.723-2.263 0-3.38 2.033-3.38 6.273v8.171h-3.844V14.27c0-2.172-1.045-3.723-2.934-3.723-2.217 0-3.38 1.999-3.38 6.031v8.409h-3.841V7.582zm27.444 13.269c1.51.689 2.882 1.206 4.358 1.206 1.441 0 2.367-.786 2.367-1.896 0-2.86-7.137-2.2-7.137-7.926 0-3.171 2.677-5.1 5.765-5.1 1.68 0 3.19.413 4.803 1.137l-1.095 3.067c-1.167-.517-2.23-.828-3.43-.828-1.442 0-2.06.69-2.06 1.729 0 2.722 7.138 2.481 7.138 7.995 0 3.102-2.779 5.205-6.211 5.205a11.413 11.413 0 01-5.421-1.378l.923-3.21zm15.31 8.72c1.132 0 1.72-.759 2.19-2.2l.77-2.32-6.571-17.463h4.049l2.916 8.824c.413 1.309.893 2.81 1.305 4.464a98.564 98.564 0 011.303-4.464l2.816-8.824h4.015l-7.233 21.293c-.926 2.689-2.985 4.102-5.216 4.102a7.856 7.856 0 01-4.015-1.034l1.166-3.033c.857.413 1.682.655 2.505.655zm14.948-21.989l3.298-.448.343 2.689c1.236-1.793 3.129-2.689 5.491-2.689 3.466 0 5.73 2.55 5.73 6.652v11.2h-3.848V14.3c0-2.172-.79-3.757-2.676-3.757-2.779 0-4.495 2.379-4.495 6.411v8.032h-3.843V7.582zM147.898 24.2c-1.99.965-3.91 1.241-5.866 1.241-5.731 0-8.616-4.205-8.616-9.167 0-4.963 2.85-9.14 8.616-9.14 2.024 0 3.945.448 5.935 1.31l-1.095 3.101c-1.577-.628-3.156-1-4.769-1-3.363 0-5.284 2.655-5.284 5.722 0 3.102 1.92 5.757 5.284 5.757 1.613 0 3.156-.415 4.769-1.069l1.026 3.245zM20.988 8.61v-.187c0-.046 0-.055-.011-.082a1.166 1.166 0 00-.022-.129c0-.028-.011-.056-.02-.083a1.21 1.21 0 00-.035-.123l-.027-.083c-.014-.038-.031-.075-.048-.113a3.16 3.16 0 00-.063-.129 1.254 1.254 0 00-.076-.132l-.046-.066a1.452 1.452 0 00-.08-.108c-.028-.035-.036-.041-.053-.062a1.567 1.567 0 00-.092-.097c-.033-.031-.038-.038-.058-.057a1.492 1.492 0 00-.103-.086l-.038-.033L11.768.677a1.72 1.72 0 00-.224-.146l-.039-.019a2.005 2.005 0 00-.177-.083l-.073-.028a2.083 2.083 0 00-.229-.068 1.87 1.87 0 00-.231-.036h-.069a1.573 1.573 0 00-.192 0h-.052a2.003 2.003 0 00-.236.017l-.053.011c-.063.014-.124.03-.185.049l-.07.024a2.088 2.088 0 00-.226.094l-8.48 4.291a1.966 1.966 0 00-.867 2.635 1.95 1.95 0 002.623.87l7.399-3.742 6.692 5.04v8.426l-7.367 3.73a1.965 1.965 0 00-.193 3.392 1.946 1.946 0 001.95.113l8.448-4.27.029-.017c.062-.033.122-.07.18-.107l.064-.047c.049-.035.096-.073.14-.113l.047-.041a1.83 1.83 0 00.157-.172l.031-.04a1.644 1.644 0 00.149-.22c.034-.06.067-.121.097-.184l.019-.044a1.779 1.779 0 00.092-.277c.015-.058.028-.117.037-.176 0-.02 0-.04.011-.058a1.71 1.71 0 00.016-.26l.002-10.611z"/><path fill="#E73953" d="M11.47 14.633a1.967 1.967 0 00.866-2.635 1.95 1.95 0 00-2.624-.87l-8.48 4.29a1.967 1.967 0 00-.866 2.635c.233.464.64.817 1.132.98a1.943 1.943 0 001.49-.111l8.481-4.289z"/></g></svg>